<svg xmlns="http://www.w3.org/2000/svg" xmlns:xlink="http://www.w3.org/1999/xlink" width="198pt" height="312pt" viewBox="0.00 0.00 198.00 312.00">
<g id="graph0" class="graph" transform="scale(1 1) rotate(0) translate(4 307.75)">
<polygon fill="white" stroke="none" points="-4,4 -4,-307.75 194.38,-307.75 194.38,4 -4,4"/>
<!-- 0 -->
<g id="node1" class="node">
<title>0</title>
<polygon fill="none" stroke="black" points="183.75,-214.5 107,-214.5 107,-178.5 183.75,-178.5 183.75,-214.5"/>
<text xml:space="preserve" text-anchor="middle" x="145.38" y="-191.82" font-family="Times,serif" font-size="14.00">calc_add</text>
</g>
<!-- 1 -->
<g id="node2" class="node">
<title>1</title>
<polygon fill="none" stroke="black" points="135.75,-125.25 59,-125.25 59,-89.25 135.75,-89.25 135.75,-125.25"/>
<text xml:space="preserve" text-anchor="middle" x="97.38" y="-102.58" font-family="Times,serif" font-size="14.00">calc_add</text>
</g>
<!-- 0&#45;&gt;1 -->
<g id="edge1" class="edge">
<title>0-&gt;1</title>
<path fill="none" stroke="black" d="M135.89,-178.26C129.19,-166.07 120.06,-149.48 112.37,-135.51"/>
<polygon fill="black" stroke="black" points="115.45,-133.85 107.57,-126.78 109.32,-137.23 115.45,-133.85"/>
<text xml:space="preserve" text-anchor="middle" x="130.17" y="-147.2" font-family="Times,serif" font-size="14.00">b</text>
</g>
<!-- 2 -->
<g id="node3" class="node">
<title>2</title>
<polygon fill="none" stroke="black" points="76.75,-36 0,-36 0,0 76.75,0 76.75,-36"/>
<text xml:space="preserve" text-anchor="middle" x="38.38" y="-13.32" font-family="Times,serif" font-size="14.00">calc_add</text>
</g>
<!-- 1&#45;&gt;2 -->
<g id="edge2" class="edge">
<title>1-&gt;2</title>
<path fill="none" stroke="black" d="M85.72,-89.01C77.31,-76.58 65.82,-59.58 56.25,-45.44"/>
<polygon fill="black" stroke="black" points="59.36,-43.78 50.86,-37.46 53.56,-47.7 59.36,-43.78"/>
<text xml:space="preserve" text-anchor="middle" x="77.66" y="-57.95" font-family="Times,serif" font-size="14.00">b</text>
</g>
<!-- 3 -->
<g id="node4" class="node">
<title>3</title>
<ellipse fill="none" stroke="black" cx="118.38" cy="-285.75" rx="18" ry="18"/>
<text xml:space="preserve" text-anchor="middle" x="118.38" y="-281.07" font-family="Times,serif" font-size="14.00">1</text>
</g>
<!-- 3&#45;&gt;0 -->
<g id="edge3" class="edge">
<title>3-&gt;0</title>
<path fill="none" stroke="black" d="M123.45,-268.34C127.19,-256.26 132.36,-239.56 136.74,-225.4"/>
<polygon fill="black" stroke="black" points="139.98,-226.77 139.59,-216.18 133.29,-224.7 139.98,-226.77"/>
<text xml:space="preserve" text-anchor="middle" x="138.42" y="-236.45" font-family="Times,serif" font-size="14.00">a</text>
</g>
<!-- 4 -->
<g id="node5" class="node">
<title>4</title>
<ellipse fill="none" stroke="black" cx="172.38" cy="-285.75" rx="18" ry="18"/>
<text xml:space="preserve" text-anchor="middle" x="172.38" y="-281.07" font-family="Times,serif" font-size="14.00">0</text>
</g>
<!-- 4&#45;&gt;0 -->
<g id="edge4" class="edge">
<title>4-&gt;0</title>
<path fill="none" stroke="black" d="M167.3,-268.34C163.56,-256.26 158.39,-239.56 154.01,-225.4"/>
<polygon fill="black" stroke="black" points="157.46,-224.7 151.16,-216.18 150.77,-226.77 157.46,-224.7"/>
<text xml:space="preserve" text-anchor="middle" x="165.79" y="-236.45" font-family="Times,serif" font-size="14.00">b</text>
</g>
<!-- 5 -->
<g id="node6" class="node">
<title>5</title>
<ellipse fill="none" stroke="black" cx="71.38" cy="-196.5" rx="18" ry="18"/>
<text xml:space="preserve" text-anchor="middle" x="71.38" y="-191.82" font-family="Times,serif" font-size="14.00">2</text>
</g>
<!-- 5&#45;&gt;1 -->
<g id="edge5" class="edge">
<title>5-&gt;1</title>
<path fill="none" stroke="black" d="M76.27,-179.09C79.86,-167.01 84.84,-150.31 89.06,-136.15"/>
<polygon fill="black" stroke="black" points="92.31,-137.52 91.81,-126.93 85.6,-135.52 92.31,-137.52"/>
<text xml:space="preserve" text-anchor="middle" x="90.83" y="-147.2" font-family="Times,serif" font-size="14.00">a</text>
</g>
<!-- 6 -->
<g id="node7" class="node">
<title>6</title>
<ellipse fill="none" stroke="black" cx="23.38" cy="-107.25" rx="18" ry="18"/>
<text xml:space="preserve" text-anchor="middle" x="23.38" y="-102.58" font-family="Times,serif" font-size="14.00">3</text>
</g>
<!-- 6&#45;&gt;2 -->
<g id="edge6" class="edge">
<title>6-&gt;2</title>
<path fill="none" stroke="black" d="M26.34,-89.01C28.37,-77.18 31.12,-61.2 33.48,-47.5"/>
<polygon fill="black" stroke="black" points="36.92,-48.14 35.16,-37.69 30.02,-46.96 36.92,-48.14"/>
<text xml:space="preserve" text-anchor="middle" x="36.34" y="-57.95" font-family="Times,serif" font-size="14.00">a</text>
</g>
</g>
</svg>